# Blender 3.6.3
# www.blender.org
mtllib beer.mtl
o Cylinder
v 0.000000 0.045593 -0.304807
v 0.000000 1.011776 -0.304807
v 0.215531 0.045593 -0.215531
v 0.215531 1.011776 -0.215531
v 0.304807 0.045593 0.000000
v 0.304807 1.011776 0.000000
v 0.215531 0.045593 0.215531
v 0.215531 1.011776 0.215531
v 0.000000 0.045593 0.304807
v 0.000000 1.011776 0.304807
v -0.215531 0.045593 0.215531
v -0.215531 1.011776 0.215531
v -0.304807 0.045593 0.000000
v -0.304807 1.011776 0.000000
v -0.215531 0.045593 -0.215531
v -0.215531 1.011776 -0.215531
v 0.000000 0.803863 -0.304807
v 0.215531 0.803863 -0.215531
v 0.304807 0.803863 0.000000
v 0.215531 0.803863 0.215531
v 0.000000 0.803863 0.304807
v -0.215531 0.803863 0.215531
v -0.304807 0.803863 0.000000
v -0.215531 0.803863 -0.215531
v 0.215531 0.711596 -0.215531
v 0.304807 0.711596 0.000000
v 0.215531 0.711596 0.215531
v 0.000000 0.711596 0.304807
v -0.215531 0.711596 0.215531
v -0.304807 0.711596 0.000000
v -0.215531 0.711596 -0.215531
v 0.000000 0.711596 -0.304807
v 0.215531 0.442504 -0.215531
v 0.304807 0.442504 0.000000
v 0.215531 0.442504 0.215531
v 0.000000 0.442504 0.304807
v -0.215531 0.442504 0.215531
v -0.304807 0.442504 0.000000
v -0.215531 0.442504 -0.215531
v 0.000000 0.442504 -0.304807
v 0.215531 0.351685 -0.215531
v 0.304807 0.351685 0.000000
v 0.215531 0.351685 0.215531
v 0.000000 0.351685 0.304807
v -0.215531 0.351685 0.215531
v -0.304807 0.351685 0.000000
v -0.215531 0.351685 -0.215531
v 0.000000 0.351685 -0.304807
v -0.236457 0.045593 -0.165010
v -0.236457 1.011776 -0.165010
v -0.236457 0.803863 -0.165010
v -0.236457 0.711596 -0.165010
v -0.236457 0.442504 -0.165010
v -0.236457 0.351685 -0.165010
v -0.284481 1.011776 -0.049072
v -0.284481 0.045593 -0.049072
v -0.284481 0.803863 -0.049072
v -0.284481 0.711596 -0.049072
v -0.284481 0.442504 -0.049072
v -0.284481 0.351685 -0.049072
v -0.459963 0.803863 -0.121759
v -0.411939 0.803863 -0.237697
v -0.459963 0.711596 -0.121759
v -0.411939 0.711596 -0.237697
v -0.459963 0.442504 -0.121759
v -0.411939 0.442504 -0.237697
v -0.459963 0.351685 -0.121759
v -0.411939 0.351685 -0.237697
v -0.362913 0.442504 -0.081560
v -0.362913 0.351685 -0.081560
v -0.314890 0.351685 -0.197498
v -0.314890 0.442504 -0.197498
v -0.459963 0.712793 -0.121759
v -0.411939 0.712793 -0.237697
v -0.362913 0.712793 -0.081560
v -0.314890 0.712793 -0.197498
vn 0.3827 -0.0000 -0.9239
vn 0.9239 -0.0000 -0.3827
vn 0.9239 -0.0000 0.3827
vn 0.3827 -0.0000 0.9239
vn -0.3827 -0.0000 0.9239
vn -0.9239 -0.0000 0.3827
vn -0.0000 1.0000 -0.0000
vn -0.9239 -0.0000 -0.3827
vn -0.3827 -0.0000 -0.9239
vn -0.0000 -1.0000 -0.0000
vt 0.626327 0.699381
vt 0.626327 0.870914
vt 0.837902 0.870914
vt 0.837902 0.699381
vt 0.659572 0.699381
vt 0.659572 0.870914
vt 0.447997 0.870914
vt 0.447997 0.699381
vt 0.236422 0.870914
vt 0.236422 0.699381
vt 0.414752 0.870914
vt 0.414752 0.699381
vt 0.655640 0.988734
vt 0.636838 0.999108
vt 0.618035 0.988734
vt 0.616210 0.982863
vt 0.612020 0.969391
vt 0.610247 0.963689
vt 0.618035 0.938644
vt 0.636838 0.928270
vt 0.655640 0.938644
vt 0.663428 0.963689
vt 0.609979 0.699381
vt 0.609979 0.870914
vt 0.610624 0.650276
vt 0.675570 0.614442
vt 0.702472 0.527932
vt 0.675570 0.441421
vt 0.610624 0.405587
vt 0.545678 0.441421
vt 0.518776 0.527932
vt 0.524901 0.547628
vt 0.539372 0.594164
vt 0.545678 0.614442
vt 0.414752 0.623259
vt 0.626327 0.623259
vt 0.609979 0.623259
vt 0.659572 0.623259
vt 0.236422 0.623259
vt 0.447997 0.623259
vt 0.837902 0.623259
vt 0.626327 0.401252
vt 0.837902 0.401252
vt 0.659572 0.401252
vt 0.447997 0.401252
vt 0.236422 0.401252
vt 0.414752 0.401252
vt 0.609979 0.401252
vt 0.414752 0.326325
vt 0.626327 0.326325
vt 0.609979 0.326325
vt 0.659572 0.326325
vt 0.236422 0.326325
vt 0.447997 0.326325
vt 0.626327 0.326325
vt 0.837902 0.326325
vt 0.626327 0.073793
vt 0.837902 0.073793
vt 0.659572 0.073793
vt 0.447997 0.073793
vt 0.236422 0.073793
vt 0.414752 0.073793
vt 0.609979 0.073793
vt 0.496168 0.073793
vt 0.496168 0.326325
vt 0.394209 0.699381
vt 0.394209 0.623259
vt 0.221948 0.623259
vt 0.221948 0.699381
vt 0.496168 0.401252
vt 0.496168 0.623259
vt 0.270075 0.326325
vt 0.270075 0.401252
vt 0.174806 0.401252
vt 0.174806 0.326325
vt 0.496168 0.699381
vt 0.496168 0.870914
vt 0.567521 0.326325
vt 0.567521 0.401252
vt 0.681332 0.401252
vt 0.681332 0.326325
vt 0.567521 0.623259
vt 0.567521 0.699381
vt 0.681332 0.699381
vt 0.681332 0.623259
vt 0.347067 0.623259
vt 0.347067 0.699381
vt 0.174806 0.699381
vt 0.174806 0.623259
vt 0.317216 0.401252
vt 0.317216 0.326325
vt 0.221948 0.326325
vt 0.221948 0.401252
vt 0.317216 0.688976
vt 0.270075 0.537377
vt 0.174806 0.589940
vt 0.221948 0.741540
vt 0.394209 0.646495
vt 0.347067 0.494896
vt 0.528060 0.401252
vt 0.641870 0.401252
vt 0.641870 0.624247
vt 0.528060 0.624247
vt 0.394209 0.401252
vt 0.394209 0.326325
vt 0.347067 0.326325
vt 0.347067 0.401252
vt 0.270075 0.624247
vt 0.174806 0.624247
vt 0.221948 0.624247
vt 0.317216 0.624247
vt 0.567521 0.624247
vt 0.681332 0.624247
s 0
usemtl Material.001
f 17/1/1 2/2/1 4/3/1 18/4/1
f 18/5/2 4/6/2 6/7/2 19/8/2
f 19/8/3 6/7/3 8/9/3 20/10/3
f 20/4/4 8/3/4 10/2/4 21/1/4
f 21/1/5 10/2/5 12/11/5 22/12/5
f 22/10/6 12/9/6 14/7/6 23/8/6
f 4/13/7 2/14/7 16/15/7 50/16/7 55/17/7 14/18/7 12/19/7 10/20/7 8/21/7 6/22/7
f 51/23/8 50/24/8 16/6/8 24/5/8
f 24/12/9 16/11/9 2/2/9 17/1/9
f 1/25/10 3/26/10 5/27/10 7/28/10 9/29/10 11/30/10 13/31/10 56/32/10 49/33/10 15/34/10
f 31/35/9 24/12/9 17/1/9 32/36/9
f 52/37/8 51/23/8 24/5/8 31/38/8
f 29/39/6 22/10/6 23/8/6 30/40/6
f 28/36/5 21/1/5 22/12/5 29/35/5
f 27/41/4 20/4/4 21/1/4 28/36/4
f 26/40/3 19/8/3 20/10/3 27/39/3
f 25/38/2 18/5/2 19/8/2 26/40/2
f 32/36/1 17/1/1 18/4/1 25/41/1
f 40/42/1 32/36/1 25/41/1 33/43/1
f 33/44/2 25/38/2 26/40/2 34/45/2
f 34/45/3 26/40/3 27/39/3 35/46/3
f 35/43/4 27/41/4 28/36/4 36/42/4
f 36/42/5 28/36/5 29/35/5 37/47/5
f 37/46/6 29/39/6 30/40/6 38/45/6
f 53/48/8 52/37/8 31/38/8 39/44/8
f 39/47/9 31/35/9 32/36/9 40/42/9
f 47/49/9 39/47/9 40/42/9 48/50/9
f 54/51/8 53/48/8 39/44/8 47/52/8
f 45/53/6 37/46/6 38/45/6 46/54/6
f 44/55/5 36/42/5 37/47/5 45/49/5
f 43/56/4 35/43/4 36/42/4 44/55/4
f 42/54/3 34/45/3 35/46/3 43/53/3
f 41/52/2 33/44/2 34/45/2 42/54/2
f 48/50/1 40/42/1 33/43/1 41/56/1
f 1/57/1 48/50/1 41/56/1 3/58/1
f 3/59/2 41/52/2 42/54/2 5/60/2
f 5/60/3 42/54/3 43/53/3 7/61/3
f 7/58/4 43/56/4 44/55/4 9/57/4
f 9/57/5 44/55/5 45/49/5 11/62/5
f 11/61/6 45/53/6 46/54/6 13/60/6
f 49/63/8 54/51/8 47/52/8 15/59/8
f 15/62/9 47/49/9 48/50/9 1/57/9
f 56/64/8 60/65/8 54/51/8 49/63/8
f 51/66/1 52/67/1 64/68/1 62/69/1
f 59/70/8 58/71/8 52/37/8 53/48/8
f 70/72/5 69/73/5 65/74/5 67/75/5
f 57/76/8 55/77/8 50/24/8 51/23/8
f 23/8/8 14/7/8 55/77/8 57/76/8
f 30/40/8 23/8/8 57/76/8 58/71/8
f 38/45/8 30/40/8 58/71/8 59/70/8
f 46/54/8 38/45/8 59/70/8 60/65/8
f 13/60/8 46/54/8 60/65/8 56/64/8
f 67/78/8 65/79/8 66/80/8 68/81/8
f 63/82/8 61/83/8 62/84/8 64/85/8
f 58/86/5 57/87/5 61/88/5 63/89/5
f 72/90/1 71/91/1 68/92/1 66/93/1
f 71/94/10 70/95/10 67/96/10 68/97/10
f 52/98/10 58/99/10 63/96/10 64/97/10
f 69/100/3 72/101/3 76/102/3 75/103/3
f 57/99/7 51/98/7 62/97/7 61/96/7
f 59/99/7 53/98/7 72/94/7 69/95/7
f 54/98/10 60/99/10 70/95/10 71/94/10
f 53/104/1 54/105/1 71/91/1 72/90/1
f 60/106/5 59/107/5 69/73/5 70/72/5
f 75/95/7 76/94/7 74/97/7 73/96/7
f 65/74/5 69/73/5 75/108/5 73/109/5
f 72/90/1 66/93/1 74/110/1 76/111/1
f 66/80/8 65/79/8 73/112/8 74/113/8
